<?xml version="1.0" encoding="UTF-8"?>
<svg id="Layer_1" data-name="Layer 1" xmlns="http://www.w3.org/2000/svg" viewBox="0 0 100 18.24">
  <defs>
    <style>
      .cls-1 {
        fill: #00b80f;
      }
    </style>
  </defs>
  <path class="cls-1" d="M5.63,14.53c-1.73,0-3.1-.48-4.11-1.45-1.01-.96-1.52-2.34-1.52-4.14v-3.35C0,3.79,.51,2.41,1.52,1.45,2.53,.48,3.9,0,5.63,0s3.04,.47,3.98,1.41,1.41,2.22,1.41,3.86v.12h-2.59v-.2c0-.82-.23-1.5-.69-2.04-.46-.53-1.16-.8-2.1-.8s-1.66,.29-2.19,.86c-.53,.57-.8,1.35-.8,2.33v3.43c0,.97,.27,1.75,.8,2.32,.53,.58,1.26,.87,2.19,.87s1.65-.27,2.1-.81c.46-.54,.69-1.21,.69-2.03v-.36h2.59v.28c0,1.64-.47,2.92-1.41,3.86s-2.26,1.41-3.98,1.41Z"/>
  <path class="cls-1" d="M13.25,14.25V4.35h2.47v1.12h.36c.15-.4,.39-.69,.73-.88,.34-.19,.73-.28,1.19-.28h1.2v2.23h-1.24c-.64,0-1.16,.17-1.58,.51-.41,.34-.62,.86-.62,1.57v5.63h-2.51Z"/>
  <path class="cls-1" d="M22.23,18.24v-2.19h5.39c.37,0,.56-.2,.56-.6v-2.49h-.36c-.11,.23-.27,.45-.5,.68s-.53,.41-.92,.56c-.39,.15-.88,.22-1.48,.22-.77,0-1.45-.18-2.03-.53-.58-.35-1.03-.84-1.35-1.47-.32-.63-.48-1.34-.48-2.15V4.35h2.51v5.71c0,.75,.18,1.3,.55,1.68,.37,.37,.89,.56,1.57,.56,.77,0,1.37-.26,1.8-.77,.43-.51,.64-1.23,.64-2.14V4.35h2.51v11.65c0,.68-.2,1.22-.6,1.63-.4,.41-.93,.61-1.6,.61h-6.23Z"/>
  <path class="cls-1" d="M33.44,18.24V4.35h2.47v1.2h.36c.23-.39,.58-.73,1.06-1.03,.48-.3,1.16-.45,2.06-.45,.8,0,1.54,.2,2.21,.59,.68,.39,1.22,.97,1.64,1.73s.62,1.68,.62,2.75v.32c0,1.08-.21,2-.62,2.75-.41,.76-.96,1.33-1.64,1.73s-1.42,.59-2.21,.59c-.6,0-1.1-.07-1.51-.21-.41-.14-.73-.32-.98-.54-.25-.22-.44-.44-.59-.67h-.36v5.13h-2.51Zm5.19-5.91c.78,0,1.43-.25,1.95-.75,.51-.5,.77-1.23,.77-2.18v-.2c0-.96-.26-1.69-.78-2.18-.52-.5-1.16-.75-1.94-.75s-1.42,.25-1.94,.75-.78,1.23-.78,2.18v.2c0,.96,.26,1.69,.78,2.18s1.16,.75,1.94,.75Z"/>
  <path class="cls-1" d="M49.64,14.25c-.65,0-1.18-.2-1.59-.61-.41-.41-.61-.95-.61-1.63V6.42h-2.47v-2.08h2.47V1.28h2.51v3.07h2.71v2.08h-2.71v5.15c0,.4,.19,.6,.56,.6h1.92v2.07h-2.79Z"/>
  <path class="cls-1" d="M59.3,14.53c-.98,0-1.87-.2-2.65-.6-.79-.4-1.4-.98-1.86-1.74-.45-.76-.68-1.67-.68-2.73v-.32c0-1.06,.23-1.98,.68-2.73,.45-.76,1.07-1.34,1.86-1.74,.78-.4,1.67-.6,2.65-.6s1.87,.2,2.65,.6c.78,.4,1.4,.98,1.86,1.74,.45,.76,.68,1.67,.68,2.73v.32c0,1.06-.23,1.98-.68,2.73-.45,.76-1.07,1.34-1.86,1.74-.79,.4-1.67,.6-2.65,.6Zm0-2.23c.77,0,1.41-.25,1.92-.75s.76-1.21,.76-2.14v-.2c0-.93-.25-1.65-.75-2.14s-1.14-.75-1.93-.75-1.41,.25-1.92,.75c-.51,.5-.76,1.21-.76,2.14v.2c0,.93,.25,1.65,.76,2.14,.51,.5,1.14,.75,1.92,.75Z"/>
  <path class="cls-1" d="M66.72,14.25V.28h2.63V11.85h6.38v2.39h-9.02Z"/>
  <path class="cls-1" d="M78.87,3.19c-.45,0-.83-.15-1.15-.44-.31-.29-.47-.68-.47-1.16s.16-.86,.47-1.16c.31-.29,.69-.44,1.15-.44s.85,.15,1.16,.44c.31,.29,.46,.68,.46,1.16s-.15,.86-.46,1.16c-.31,.29-.69,.44-1.16,.44Zm-1.26,11.05V4.35h2.51V14.25h-2.51Z"/>
  <path class="cls-1" d="M87.03,14.53c-1.29,0-2.35-.28-3.17-.84-.83-.56-1.32-1.36-1.5-2.39l2.31-.6c.09,.47,.25,.83,.47,1.1,.22,.27,.49,.46,.82,.57,.33,.11,.68,.17,1.07,.17,.59,0,1.02-.1,1.3-.31,.28-.21,.42-.46,.42-.77s-.13-.54-.4-.71c-.27-.17-.69-.3-1.28-.41l-.56-.1c-.69-.13-1.32-.32-1.9-.55-.57-.23-1.03-.56-1.38-.97-.35-.41-.52-.94-.52-1.6,0-.98,.36-1.74,1.08-2.26,.72-.53,1.66-.79,2.83-.79,1.1,0,2.02,.25,2.75,.74,.73,.49,1.21,1.14,1.44,1.94l-2.33,.72c-.11-.51-.32-.86-.65-1.08-.33-.21-.73-.32-1.21-.32s-.84,.08-1.1,.25c-.25,.17-.38,.4-.38,.69,0,.32,.13,.56,.4,.71,.27,.15,.63,.27,1.08,.35l.56,.1c.74,.13,1.42,.31,2.03,.53,.61,.22,1.08,.53,1.44,.94,.35,.41,.53,.95,.53,1.65,0,1.04-.38,1.84-1.13,2.4-.75,.57-1.76,.85-3.02,.85Z"/>
  <path class="cls-1" d="M96.97,14.25c-.65,0-1.18-.2-1.59-.61-.41-.41-.61-.95-.61-1.63V6.42h-2.47v-2.08h2.47V1.28h2.51v3.07h2.71v2.08h-2.71v5.15c0,.4,.19,.6,.56,.6h1.92v2.07h-2.79Z"/>
</svg>